# xmcd
#
# Track frame offsets: 
#        193
#        18078
#        44635
#        69425
#
# Disc length: 1254 seconds
#
# Revision: 2
# Processed by: cddbd v1.5.2PL0 Copyright (c) Steve Scherf et al.
# Submitted via: ExactAudioCopy v1.0b3
#
DISCID=2c04e404
DTITLE=Hi Five - I Like The Way (The Kissing Game)  (MCD)
DYEAR=1991
DGENRE=R&B
TTITLE0=I Like The Way (The Kissing Game) (Radio Edit)
TTITLE1=I Like The Way (The Kissing Game) (Album Version)
TTITLE2=I Like The Way (The Kissing Game) (Special Remix)
TTITLE3=I Like The Way (The Kissing Game) (Street Remix)
EXTD=
EXTT0=
EXTT1=
EXTT2=
EXTT3=
PLAYORDER=
